<svg xmlns="http://www.w3.org/2000/svg" xml:space="preserve" xmlns:xlink="http://www.w3.org/1999/xlink" style="max-width: 100%;height: auto;" width="1072.5" height="1340.625" viewBox="0 0 1072.5 1340.625">
<defs><mask id="qrmask"><g fill="#ffffff"><g>
<g transform="translate(315.25,107.25) scale(4.4633333333333)"><rect width="6" height="6"/></g>
<g transform="translate(341.25,107.25) scale(4.4633333333333)"><rect width="6" height="6"/></g>
<g transform="translate(367.25,107.25) scale(4.4633333333333)"><rect width="6" height="6"/></g>
<g transform="translate(471.25,107.25) scale(4.4633333333333)"><rect width="6" height="6"/></g>
<g transform="translate(497.25,107.25) scale(4.4633333333333)"><rect width="6" height="6"/></g>
<g transform="translate(575.25,107.25) scale(4.4633333333333)"><rect width="6" height="6"/></g>
<g transform="translate(653.25,107.25) scale(4.4633333333333)"><rect width="6" height="6"/></g>
<g transform="translate(705.25,107.25) scale(4.4633333333333)"><rect width="6" height="6"/></g>
<g transform="translate(315.25,133.25) scale(4.4633333333333)"><rect width="6" height="6"/></g>
<g transform="translate(367.25,133.25) scale(4.4633333333333)"><rect width="6" height="6"/></g>
<g transform="translate(471.25,133.25) scale(4.4633333333333)"><rect width="6" height="6"/></g>
<g transform="translate(523.25,133.25) scale(4.4633333333333)"><rect width="6" height="6"/></g>
<g transform="translate(653.25,133.25) scale(4.4633333333333)"><rect width="6" height="6"/></g>
<g transform="translate(679.25,133.25) scale(4.4633333333333)"><rect width="6" height="6"/></g>
<g transform="translate(705.25,133.25) scale(4.4633333333333)"><rect width="6" height="6"/></g>
<g transform="translate(315.25,159.25) scale(4.4633333333333)"><rect width="6" height="6"/></g>
<g transform="translate(393.25,159.25) scale(4.4633333333333)"><rect width="6" height="6"/></g>
<g transform="translate(419.25,159.25) scale(4.4633333333333)"><rect width="6" height="6"/></g>
<g transform="translate(471.25,159.25) scale(4.4633333333333)"><rect width="6" height="6"/></g>
<g transform="translate(575.25,159.25) scale(4.4633333333333)"><rect width="6" height="6"/></g>
<g transform="translate(601.25,159.25) scale(4.4633333333333)"><rect width="6" height="6"/></g>
<g transform="translate(627.25,159.25) scale(4.4633333333333)"><rect width="6" height="6"/></g>
<g transform="translate(705.25,159.25) scale(4.4633333333333)"><rect width="6" height="6"/></g>
<g transform="translate(341.25,185.25) scale(4.4633333333333)"><rect width="6" height="6"/></g>
<g transform="translate(367.25,185.25) scale(4.4633333333333)"><rect width="6" height="6"/></g>
<g transform="translate(471.25,185.25) scale(4.4633333333333)"><rect width="6" height="6"/></g>
<g transform="translate(497.25,185.25) scale(4.4633333333333)"><rect width="6" height="6"/></g>
<g transform="translate(549.25,185.25) scale(4.4633333333333)"><rect width="6" height="6"/></g>
<g transform="translate(575.25,185.25) scale(4.4633333333333)"><rect width="6" height="6"/></g>
<g transform="translate(601.25,185.25) scale(4.4633333333333)"><rect width="6" height="6"/></g>
<g transform="translate(627.25,185.25) scale(4.4633333333333)"><rect width="6" height="6"/></g>
<g transform="translate(653.25,185.25) scale(4.4633333333333)"><rect width="6" height="6"/></g>
<g transform="translate(731.25,185.25) scale(4.4633333333333)"><rect width="6" height="6"/></g>
<g transform="translate(367.25,211.25) scale(4.4633333333333)"><rect width="6" height="6"/></g>
<g transform="translate(419.25,211.25) scale(4.4633333333333)"><rect width="6" height="6"/></g>
<g transform="translate(445.25,211.25) scale(4.4633333333333)"><rect width="6" height="6"/></g>
<g transform="translate(471.25,211.25) scale(4.4633333333333)"><rect width="6" height="6"/></g>
<g transform="translate(497.25,211.25) scale(4.4633333333333)"><rect width="6" height="6"/></g>
<g transform="translate(549.25,211.25) scale(4.4633333333333)"><rect width="6" height="6"/></g>
<g transform="translate(601.25,211.25) scale(4.4633333333333)"><rect width="6" height="6"/></g>
<g transform="translate(315.25,237.25) scale(4.4633333333333)"><rect width="6" height="6"/></g>
<g transform="translate(341.25,237.25) scale(4.4633333333333)"><rect width="6" height="6"/></g>
<g transform="translate(393.25,237.25) scale(4.4633333333333)"><rect width="6" height="6"/></g>
<g transform="translate(419.25,237.25) scale(4.4633333333333)"><rect width="6" height="6"/></g>
<g transform="translate(445.25,237.25) scale(4.4633333333333)"><rect width="6" height="6"/></g>
<g transform="translate(471.25,237.25) scale(4.4633333333333)"><rect width="6" height="6"/></g>
<g transform="translate(497.25,237.25) scale(4.4633333333333)"><rect width="6" height="6"/></g>
<g transform="translate(601.25,237.25) scale(4.4633333333333)"><rect width="6" height="6"/></g>
<g transform="translate(627.25,237.25) scale(4.4633333333333)"><rect width="6" height="6"/></g>
<g transform="translate(705.25,237.25) scale(4.4633333333333)"><rect width="6" height="6"/></g>
<g transform="translate(731.25,237.25) scale(4.4633333333333)"><rect width="6" height="6"/></g>
<g transform="translate(315.25,263.25) scale(4.4633333333333)"><rect width="6" height="6"/></g>
<g transform="translate(367.25,263.25) scale(4.4633333333333)"><rect width="6" height="6"/></g>
<g transform="translate(419.25,263.25) scale(4.4633333333333)"><rect width="6" height="6"/></g>
<g transform="translate(471.25,263.25) scale(4.4633333333333)"><rect width="6" height="6"/></g>
<g transform="translate(523.25,263.25) scale(4.4633333333333)"><rect width="6" height="6"/></g>
<g transform="translate(575.25,263.25) scale(4.4633333333333)"><rect width="6" height="6"/></g>
<g transform="translate(627.25,263.25) scale(4.4633333333333)"><rect width="6" height="6"/></g>
<g transform="translate(679.25,263.25) scale(4.4633333333333)"><rect width="6" height="6"/></g>
<g transform="translate(731.25,263.25) scale(4.4633333333333)"><rect width="6" height="6"/></g>
<g transform="translate(315.25,289.25) scale(4.4633333333333)"><rect width="6" height="6"/></g>
<g transform="translate(393.25,289.25) scale(4.4633333333333)"><rect width="6" height="6"/></g>
<g transform="translate(419.25,289.25) scale(4.4633333333333)"><rect width="6" height="6"/></g>
<g transform="translate(445.25,289.25) scale(4.4633333333333)"><rect width="6" height="6"/></g>
<g transform="translate(549.25,289.25) scale(4.4633333333333)"><rect width="6" height="6"/></g>
<g transform="translate(575.25,289.25) scale(4.4633333333333)"><rect width="6" height="6"/></g>
<g transform="translate(679.25,289.25) scale(4.4633333333333)"><rect width="6" height="6"/></g>
<g transform="translate(705.25,289.25) scale(4.4633333333333)"><rect width="6" height="6"/></g>
<g transform="translate(159.25,315.25) scale(4.4633333333333)"><rect width="6" height="6"/></g>
<g transform="translate(185.25,315.25) scale(4.4633333333333)"><rect width="6" height="6"/></g>
<g transform="translate(211.25,315.25) scale(4.4633333333333)"><rect width="6" height="6"/></g>
<g transform="translate(263.25,315.25) scale(4.4633333333333)"><rect width="6" height="6"/></g>
<g transform="translate(315.25,315.25) scale(4.4633333333333)"><rect width="6" height="6"/></g>
<g transform="translate(393.25,315.25) scale(4.4633333333333)"><rect width="6" height="6"/></g>
<g transform="translate(419.25,315.25) scale(4.4633333333333)"><rect width="6" height="6"/></g>
<g transform="translate(497.25,315.25) scale(4.4633333333333)"><rect width="6" height="6"/></g>
<g transform="translate(549.25,315.25) scale(4.4633333333333)"><rect width="6" height="6"/></g>
<g transform="translate(575.25,315.25) scale(4.4633333333333)"><rect width="6" height="6"/></g>
<g transform="translate(601.25,315.25) scale(4.4633333333333)"><rect width="6" height="6"/></g>
<g transform="translate(653.25,315.25) scale(4.4633333333333)"><rect width="6" height="6"/></g>
<g transform="translate(679.25,315.25) scale(4.4633333333333)"><rect width="6" height="6"/></g>
<g transform="translate(705.25,315.25) scale(4.4633333333333)"><rect width="6" height="6"/></g>
<g transform="translate(757.25,315.25) scale(4.4633333333333)"><rect width="6" height="6"/></g>
<g transform="translate(783.25,315.25) scale(4.4633333333333)"><rect width="6" height="6"/></g>
<g transform="translate(809.25,315.25) scale(4.4633333333333)"><rect width="6" height="6"/></g>
<g transform="translate(887.25,315.25) scale(4.4633333333333)"><rect width="6" height="6"/></g>
<g transform="translate(913.25,315.25) scale(4.4633333333333)"><rect width="6" height="6"/></g>
<g transform="translate(939.25,315.25) scale(4.4633333333333)"><rect width="6" height="6"/></g>
<g transform="translate(107.25,341.25) scale(4.4633333333333)"><rect width="6" height="6"/></g>
<g transform="translate(159.25,341.25) scale(4.4633333333333)"><rect width="6" height="6"/></g>
<g transform="translate(211.25,341.25) scale(4.4633333333333)"><rect width="6" height="6"/></g>
<g transform="translate(237.25,341.25) scale(4.4633333333333)"><rect width="6" height="6"/></g>
<g transform="translate(341.25,341.25) scale(4.4633333333333)"><rect width="6" height="6"/></g>
<g transform="translate(367.25,341.25) scale(4.4633333333333)"><rect width="6" height="6"/></g>
<g transform="translate(445.25,341.25) scale(4.4633333333333)"><rect width="6" height="6"/></g>
<g transform="translate(523.25,341.25) scale(4.4633333333333)"><rect width="6" height="6"/></g>
<g transform="translate(549.25,341.25) scale(4.4633333333333)"><rect width="6" height="6"/></g>
<g transform="translate(575.25,341.25) scale(4.4633333333333)"><rect width="6" height="6"/></g>
<g transform="translate(601.25,341.25) scale(4.4633333333333)"><rect width="6" height="6"/></g>
<g transform="translate(627.25,341.25) scale(4.4633333333333)"><rect width="6" height="6"/></g>
<g transform="translate(653.25,341.25) scale(4.4633333333333)"><rect width="6" height="6"/></g>
<g transform="translate(679.25,341.25) scale(4.4633333333333)"><rect width="6" height="6"/></g>
<g transform="translate(731.25,341.25) scale(4.4633333333333)"><rect width="6" height="6"/></g>
<g transform="translate(757.25,341.25) scale(4.4633333333333)"><rect width="6" height="6"/></g>
<g transform="translate(783.25,341.25) scale(4.4633333333333)"><rect width="6" height="6"/></g>
<g transform="translate(887.25,341.25) scale(4.4633333333333)"><rect width="6" height="6"/></g>
<g transform="translate(913.25,341.25) scale(4.4633333333333)"><rect width="6" height="6"/></g>
<g transform="translate(939.25,341.25) scale(4.4633333333333)"><rect width="6" height="6"/></g>
<g transform="translate(107.25,367.25) scale(4.4633333333333)"><rect width="6" height="6"/></g>
<g transform="translate(133.25,367.25) scale(4.4633333333333)"><rect width="6" height="6"/></g>
<g transform="translate(263.25,367.25) scale(4.4633333333333)"><rect width="6" height="6"/></g>
<g transform="translate(289.25,367.25) scale(4.4633333333333)"><rect width="6" height="6"/></g>
<g transform="translate(367.25,367.25) scale(4.4633333333333)"><rect width="6" height="6"/></g>
<g transform="translate(497.25,367.25) scale(4.4633333333333)"><rect width="6" height="6"/></g>
<g transform="translate(523.25,367.25) scale(4.4633333333333)"><rect width="6" height="6"/></g>
<g transform="translate(601.25,367.25) scale(4.4633333333333)"><rect width="6" height="6"/></g>
<g transform="translate(627.25,367.25) scale(4.4633333333333)"><rect width="6" height="6"/></g>
<g transform="translate(653.25,367.25) scale(4.4633333333333)"><rect width="6" height="6"/></g>
<g transform="translate(731.25,367.25) scale(4.4633333333333)"><rect width="6" height="6"/></g>
<g transform="translate(757.25,367.25) scale(4.4633333333333)"><rect width="6" height="6"/></g>
<g transform="translate(809.25,367.25) scale(4.4633333333333)"><rect width="6" height="6"/></g>
<g transform="translate(861.25,367.25) scale(4.4633333333333)"><rect width="6" height="6"/></g>
<g transform="translate(887.25,367.25) scale(4.4633333333333)"><rect width="6" height="6"/></g>
<g transform="translate(913.25,367.25) scale(4.4633333333333)"><rect width="6" height="6"/></g>
<g transform="translate(939.25,367.25) scale(4.4633333333333)"><rect width="6" height="6"/></g>
<g transform="translate(133.25,393.25) scale(4.4633333333333)"><rect width="6" height="6"/></g>
<g transform="translate(159.25,393.25) scale(4.4633333333333)"><rect width="6" height="6"/></g>
<g transform="translate(211.25,393.25) scale(4.4633333333333)"><rect width="6" height="6"/></g>
<g transform="translate(237.25,393.25) scale(4.4633333333333)"><rect width="6" height="6"/></g>
<g transform="translate(289.25,393.25) scale(4.4633333333333)"><rect width="6" height="6"/></g>
<g transform="translate(367.25,393.25) scale(4.4633333333333)"><rect width="6" height="6"/></g>
<g transform="translate(419.25,393.25) scale(4.4633333333333)"><rect width="6" height="6"/></g>
<g transform="translate(445.25,393.25) scale(4.4633333333333)"><rect width="6" height="6"/></g>
<g transform="translate(575.25,393.25) scale(4.4633333333333)"><rect width="6" height="6"/></g>
<g transform="translate(627.25,393.25) scale(4.4633333333333)"><rect width="6" height="6"/></g>
<g transform="translate(653.25,393.25) scale(4.4633333333333)"><rect width="6" height="6"/></g>
<g transform="translate(679.25,393.25) scale(4.4633333333333)"><rect width="6" height="6"/></g>
<g transform="translate(705.25,393.25) scale(4.4633333333333)"><rect width="6" height="6"/></g>
<g transform="translate(731.25,393.25) scale(4.4633333333333)"><rect width="6" height="6"/></g>
<g transform="translate(757.25,393.25) scale(4.4633333333333)"><rect width="6" height="6"/></g>
<g transform="translate(887.25,393.25) scale(4.4633333333333)"><rect width="6" height="6"/></g>
<g transform="translate(159.25,419.25) scale(4.4633333333333)"><rect width="6" height="6"/></g>
<g transform="translate(185.25,419.25) scale(4.4633333333333)"><rect width="6" height="6"/></g>
<g transform="translate(211.25,419.25) scale(4.4633333333333)"><rect width="6" height="6"/></g>
<g transform="translate(263.25,419.25) scale(4.4633333333333)"><rect width="6" height="6"/></g>
<g transform="translate(289.25,419.25) scale(4.4633333333333)"><rect width="6" height="6"/></g>
<g transform="translate(315.25,419.25) scale(4.4633333333333)"><rect width="6" height="6"/></g>
<g transform="translate(341.25,419.25) scale(4.4633333333333)"><rect width="6" height="6"/></g>
<g transform="translate(367.25,419.25) scale(4.4633333333333)"><rect width="6" height="6"/></g>
<g transform="translate(445.25,419.25) scale(4.4633333333333)"><rect width="6" height="6"/></g>
<g transform="translate(471.25,419.25) scale(4.4633333333333)"><rect width="6" height="6"/></g>
<g transform="translate(601.25,419.25) scale(4.4633333333333)"><rect width="6" height="6"/></g>
<g transform="translate(653.25,419.25) scale(4.4633333333333)"><rect width="6" height="6"/></g>
<g transform="translate(705.25,419.25) scale(4.4633333333333)"><rect width="6" height="6"/></g>
<g transform="translate(731.25,419.25) scale(4.4633333333333)"><rect width="6" height="6"/></g>
<g transform="translate(757.25,419.25) scale(4.4633333333333)"><rect width="6" height="6"/></g>
<g transform="translate(887.25,419.25) scale(4.4633333333333)"><rect width="6" height="6"/></g>
<g transform="translate(913.25,419.25) scale(4.4633333333333)"><rect width="6" height="6"/></g>
<g transform="translate(159.25,445.25) scale(4.4633333333333)"><rect width="6" height="6"/></g>
<g transform="translate(185.25,445.25) scale(4.4633333333333)"><rect width="6" height="6"/></g>
<g transform="translate(237.25,445.25) scale(4.4633333333333)"><rect width="6" height="6"/></g>
<g transform="translate(315.25,445.25) scale(4.4633333333333)"><rect width="6" height="6"/></g>
<g transform="translate(393.25,445.25) scale(4.4633333333333)"><rect width="6" height="6"/></g>
<g transform="translate(497.25,445.25) scale(4.4633333333333)"><rect width="6" height="6"/></g>
<g transform="translate(523.25,445.25) scale(4.4633333333333)"><rect width="6" height="6"/></g>
<g transform="translate(549.25,445.25) scale(4.4633333333333)"><rect width="6" height="6"/></g>
<g transform="translate(575.25,445.25) scale(4.4633333333333)"><rect width="6" height="6"/></g>
<g transform="translate(653.25,445.25) scale(4.4633333333333)"><rect width="6" height="6"/></g>
<g transform="translate(679.25,445.25) scale(4.4633333333333)"><rect width="6" height="6"/></g>
<g transform="translate(705.25,445.25) scale(4.4633333333333)"><rect width="6" height="6"/></g>
<g transform="translate(757.25,445.25) scale(4.4633333333333)"><rect width="6" height="6"/></g>
<g transform="translate(783.25,445.25) scale(4.4633333333333)"><rect width="6" height="6"/></g>
<g transform="translate(809.25,445.25) scale(4.4633333333333)"><rect width="6" height="6"/></g>
<g transform="translate(887.25,445.25) scale(4.4633333333333)"><rect width="6" height="6"/></g>
<g transform="translate(939.25,445.25) scale(4.4633333333333)"><rect width="6" height="6"/></g>
<g transform="translate(107.25,471.25) scale(4.4633333333333)"><rect width="6" height="6"/></g>
<g transform="translate(133.25,471.25) scale(4.4633333333333)"><rect width="6" height="6"/></g>
<g transform="translate(159.25,471.25) scale(4.4633333333333)"><rect width="6" height="6"/></g>
<g transform="translate(185.25,471.25) scale(4.4633333333333)"><rect width="6" height="6"/></g>
<g transform="translate(263.25,471.25) scale(4.4633333333333)"><rect width="6" height="6"/></g>
<g transform="translate(315.25,471.25) scale(4.4633333333333)"><rect width="6" height="6"/></g>
<g transform="translate(367.25,471.25) scale(4.4633333333333)"><rect width="6" height="6"/></g>
<g transform="translate(419.25,471.25) scale(4.4633333333333)"><rect width="6" height="6"/></g>
<g transform="translate(497.25,471.25) scale(4.4633333333333)"><rect width="6" height="6"/></g>
<g transform="translate(523.25,471.25) scale(4.4633333333333)"><rect width="6" height="6"/></g>
<g transform="translate(679.25,471.25) scale(4.4633333333333)"><rect width="6" height="6"/></g>
<g transform="translate(731.25,471.25) scale(4.4633333333333)"><rect width="6" height="6"/></g>
<g transform="translate(757.25,471.25) scale(4.4633333333333)"><rect width="6" height="6"/></g>
<g transform="translate(783.25,471.25) scale(4.4633333333333)"><rect width="6" height="6"/></g>
<g transform="translate(887.25,471.25) scale(4.4633333333333)"><rect width="6" height="6"/></g>
<g transform="translate(913.25,471.25) scale(4.4633333333333)"><rect width="6" height="6"/></g>
<g transform="translate(133.25,497.25) scale(4.4633333333333)"><rect width="6" height="6"/></g>
<g transform="translate(159.25,497.25) scale(4.4633333333333)"><rect width="6" height="6"/></g>
<g transform="translate(185.25,497.25) scale(4.4633333333333)"><rect width="6" height="6"/></g>
<g transform="translate(237.25,497.25) scale(4.4633333333333)"><rect width="6" height="6"/></g>
<g transform="translate(289.25,497.25) scale(4.4633333333333)"><rect width="6" height="6"/></g>
<g transform="translate(367.25,497.25) scale(4.4633333333333)"><rect width="6" height="6"/></g>
<g transform="translate(393.25,497.25) scale(4.4633333333333)"><rect width="6" height="6"/></g>
<g transform="translate(419.25,497.25) scale(4.4633333333333)"><rect width="6" height="6"/></g>
<g transform="translate(497.25,497.25) scale(4.4633333333333)"><rect width="6" height="6"/></g>
<g transform="translate(549.25,497.25) scale(4.4633333333333)"><rect width="6" height="6"/></g>
<g transform="translate(575.25,497.25) scale(4.4633333333333)"><rect width="6" height="6"/></g>
<g transform="translate(627.25,497.25) scale(4.4633333333333)"><rect width="6" height="6"/></g>
<g transform="translate(679.25,497.25) scale(4.4633333333333)"><rect width="6" height="6"/></g>
<g transform="translate(757.25,497.25) scale(4.4633333333333)"><rect width="6" height="6"/></g>
<g transform="translate(809.25,497.25) scale(4.4633333333333)"><rect width="6" height="6"/></g>
<g transform="translate(887.25,497.25) scale(4.4633333333333)"><rect width="6" height="6"/></g>
<g transform="translate(159.25,523.25) scale(4.4633333333333)"><rect width="6" height="6"/></g>
<g transform="translate(211.25,523.25) scale(4.4633333333333)"><rect width="6" height="6"/></g>
<g transform="translate(237.25,523.25) scale(4.4633333333333)"><rect width="6" height="6"/></g>
<g transform="translate(263.25,523.25) scale(4.4633333333333)"><rect width="6" height="6"/></g>
<g transform="translate(289.25,523.25) scale(4.4633333333333)"><rect width="6" height="6"/></g>
<g transform="translate(341.25,523.25) scale(4.4633333333333)"><rect width="6" height="6"/></g>
<g transform="translate(367.25,523.25) scale(4.4633333333333)"><rect width="6" height="6"/></g>
<g transform="translate(393.25,523.25) scale(4.4633333333333)"><rect width="6" height="6"/></g>
<g transform="translate(445.25,523.25) scale(4.4633333333333)"><rect width="6" height="6"/></g>
<g transform="translate(497.25,523.25) scale(4.4633333333333)"><rect width="6" height="6"/></g>
<g transform="translate(575.25,523.25) scale(4.4633333333333)"><rect width="6" height="6"/></g>
<g transform="translate(679.25,523.25) scale(4.4633333333333)"><rect width="6" height="6"/></g>
<g transform="translate(809.25,523.25) scale(4.4633333333333)"><rect width="6" height="6"/></g>
<g transform="translate(835.25,523.25) scale(4.4633333333333)"><rect width="6" height="6"/></g>
<g transform="translate(887.25,523.25) scale(4.4633333333333)"><rect width="6" height="6"/></g>
<g transform="translate(913.25,523.25) scale(4.4633333333333)"><rect width="6" height="6"/></g>
<g transform="translate(107.25,549.25) scale(4.4633333333333)"><rect width="6" height="6"/></g>
<g transform="translate(367.25,549.25) scale(4.4633333333333)"><rect width="6" height="6"/></g>
<g transform="translate(393.25,549.25) scale(4.4633333333333)"><rect width="6" height="6"/></g>
<g transform="translate(445.25,549.25) scale(4.4633333333333)"><rect width="6" height="6"/></g>
<g transform="translate(471.25,549.25) scale(4.4633333333333)"><rect width="6" height="6"/></g>
<g transform="translate(497.25,549.25) scale(4.4633333333333)"><rect width="6" height="6"/></g>
<g transform="translate(627.25,549.25) scale(4.4633333333333)"><rect width="6" height="6"/></g>
<g transform="translate(679.25,549.25) scale(4.4633333333333)"><rect width="6" height="6"/></g>
<g transform="translate(705.25,549.25) scale(4.4633333333333)"><rect width="6" height="6"/></g>
<g transform="translate(731.25,549.25) scale(4.4633333333333)"><rect width="6" height="6"/></g>
<g transform="translate(809.25,549.25) scale(4.4633333333333)"><rect width="6" height="6"/></g>
<g transform="translate(835.25,549.25) scale(4.4633333333333)"><rect width="6" height="6"/></g>
<g transform="translate(107.25,575.25) scale(4.4633333333333)"><rect width="6" height="6"/></g>
<g transform="translate(133.25,575.25) scale(4.4633333333333)"><rect width="6" height="6"/></g>
<g transform="translate(159.25,575.25) scale(4.4633333333333)"><rect width="6" height="6"/></g>
<g transform="translate(185.25,575.25) scale(4.4633333333333)"><rect width="6" height="6"/></g>
<g transform="translate(263.25,575.25) scale(4.4633333333333)"><rect width="6" height="6"/></g>
<g transform="translate(289.25,575.25) scale(4.4633333333333)"><rect width="6" height="6"/></g>
<g transform="translate(315.25,575.25) scale(4.4633333333333)"><rect width="6" height="6"/></g>
<g transform="translate(341.25,575.25) scale(4.4633333333333)"><rect width="6" height="6"/></g>
<g transform="translate(419.25,575.25) scale(4.4633333333333)"><rect width="6" height="6"/></g>
<g transform="translate(445.25,575.25) scale(4.4633333333333)"><rect width="6" height="6"/></g>
<g transform="translate(497.25,575.25) scale(4.4633333333333)"><rect width="6" height="6"/></g>
<g transform="translate(549.25,575.25) scale(4.4633333333333)"><rect width="6" height="6"/></g>
<g transform="translate(601.25,575.25) scale(4.4633333333333)"><rect width="6" height="6"/></g>
<g transform="translate(627.25,575.25) scale(4.4633333333333)"><rect width="6" height="6"/></g>
<g transform="translate(705.25,575.25) scale(4.4633333333333)"><rect width="6" height="6"/></g>
<g transform="translate(731.25,575.25) scale(4.4633333333333)"><rect width="6" height="6"/></g>
<g transform="translate(757.25,575.25) scale(4.4633333333333)"><rect width="6" height="6"/></g>
<g transform="translate(783.25,575.25) scale(4.4633333333333)"><rect width="6" height="6"/></g>
<g transform="translate(809.25,575.25) scale(4.4633333333333)"><rect width="6" height="6"/></g>
<g transform="translate(887.25,575.25) scale(4.4633333333333)"><rect width="6" height="6"/></g>
<g transform="translate(913.25,575.25) scale(4.4633333333333)"><rect width="6" height="6"/></g>
<g transform="translate(107.25,601.25) scale(4.4633333333333)"><rect width="6" height="6"/></g>
<g transform="translate(133.25,601.25) scale(4.4633333333333)"><rect width="6" height="6"/></g>
<g transform="translate(185.25,601.25) scale(4.4633333333333)"><rect width="6" height="6"/></g>
<g transform="translate(237.25,601.25) scale(4.4633333333333)"><rect width="6" height="6"/></g>
<g transform="translate(315.25,601.25) scale(4.4633333333333)"><rect width="6" height="6"/></g>
<g transform="translate(367.25,601.25) scale(4.4633333333333)"><rect width="6" height="6"/></g>
<g transform="translate(393.25,601.25) scale(4.4633333333333)"><rect width="6" height="6"/></g>
<g transform="translate(419.25,601.25) scale(4.4633333333333)"><rect width="6" height="6"/></g>
<g transform="translate(497.25,601.25) scale(4.4633333333333)"><rect width="6" height="6"/></g>
<g transform="translate(549.25,601.25) scale(4.4633333333333)"><rect width="6" height="6"/></g>
<g transform="translate(575.25,601.25) scale(4.4633333333333)"><rect width="6" height="6"/></g>
<g transform="translate(601.25,601.25) scale(4.4633333333333)"><rect width="6" height="6"/></g>
<g transform="translate(627.25,601.25) scale(4.4633333333333)"><rect width="6" height="6"/></g>
<g transform="translate(679.25,601.25) scale(4.4633333333333)"><rect width="6" height="6"/></g>
<g transform="translate(731.25,601.25) scale(4.4633333333333)"><rect width="6" height="6"/></g>
<g transform="translate(783.25,601.25) scale(4.4633333333333)"><rect width="6" height="6"/></g>
<g transform="translate(809.25,601.25) scale(4.4633333333333)"><rect width="6" height="6"/></g>
<g transform="translate(861.25,601.25) scale(4.4633333333333)"><rect width="6" height="6"/></g>
<g transform="translate(887.25,601.25) scale(4.4633333333333)"><rect width="6" height="6"/></g>
<g transform="translate(913.25,601.25) scale(4.4633333333333)"><rect width="6" height="6"/></g>
<g transform="translate(107.25,627.25) scale(4.4633333333333)"><rect width="6" height="6"/></g>
<g transform="translate(159.25,627.25) scale(4.4633333333333)"><rect width="6" height="6"/></g>
<g transform="translate(263.25,627.25) scale(4.4633333333333)"><rect width="6" height="6"/></g>
<g transform="translate(289.25,627.25) scale(4.4633333333333)"><rect width="6" height="6"/></g>
<g transform="translate(315.25,627.25) scale(4.4633333333333)"><rect width="6" height="6"/></g>
<g transform="translate(367.25,627.25) scale(4.4633333333333)"><rect width="6" height="6"/></g>
<g transform="translate(497.25,627.25) scale(4.4633333333333)"><rect width="6" height="6"/></g>
<g transform="translate(549.25,627.25) scale(4.4633333333333)"><rect width="6" height="6"/></g>
<g transform="translate(575.25,627.25) scale(4.4633333333333)"><rect width="6" height="6"/></g>
<g transform="translate(601.25,627.25) scale(4.4633333333333)"><rect width="6" height="6"/></g>
<g transform="translate(627.25,627.25) scale(4.4633333333333)"><rect width="6" height="6"/></g>
<g transform="translate(653.25,627.25) scale(4.4633333333333)"><rect width="6" height="6"/></g>
<g transform="translate(757.25,627.25) scale(4.4633333333333)"><rect width="6" height="6"/></g>
<g transform="translate(783.25,627.25) scale(4.4633333333333)"><rect width="6" height="6"/></g>
<g transform="translate(809.25,627.25) scale(4.4633333333333)"><rect width="6" height="6"/></g>
<g transform="translate(861.25,627.25) scale(4.4633333333333)"><rect width="6" height="6"/></g>
<g transform="translate(939.25,627.25) scale(4.4633333333333)"><rect width="6" height="6"/></g>
<g transform="translate(107.25,653.25) scale(4.4633333333333)"><rect width="6" height="6"/></g>
<g transform="translate(211.25,653.25) scale(4.4633333333333)"><rect width="6" height="6"/></g>
<g transform="translate(237.25,653.25) scale(4.4633333333333)"><rect width="6" height="6"/></g>
<g transform="translate(341.25,653.25) scale(4.4633333333333)"><rect width="6" height="6"/></g>
<g transform="translate(367.25,653.25) scale(4.4633333333333)"><rect width="6" height="6"/></g>
<g transform="translate(497.25,653.25) scale(4.4633333333333)"><rect width="6" height="6"/></g>
<g transform="translate(549.25,653.25) scale(4.4633333333333)"><rect width="6" height="6"/></g>
<g transform="translate(627.25,653.25) scale(4.4633333333333)"><rect width="6" height="6"/></g>
<g transform="translate(731.25,653.25) scale(4.4633333333333)"><rect width="6" height="6"/></g>
<g transform="translate(809.25,653.25) scale(4.4633333333333)"><rect width="6" height="6"/></g>
<g transform="translate(835.25,653.25) scale(4.4633333333333)"><rect width="6" height="6"/></g>
<g transform="translate(107.25,679.25) scale(4.4633333333333)"><rect width="6" height="6"/></g>
<g transform="translate(185.25,679.25) scale(4.4633333333333)"><rect width="6" height="6"/></g>
<g transform="translate(263.25,679.25) scale(4.4633333333333)"><rect width="6" height="6"/></g>
<g transform="translate(289.25,679.25) scale(4.4633333333333)"><rect width="6" height="6"/></g>
<g transform="translate(367.25,679.25) scale(4.4633333333333)"><rect width="6" height="6"/></g>
<g transform="translate(419.25,679.25) scale(4.4633333333333)"><rect width="6" height="6"/></g>
<g transform="translate(445.25,679.25) scale(4.4633333333333)"><rect width="6" height="6"/></g>
<g transform="translate(497.25,679.25) scale(4.4633333333333)"><rect width="6" height="6"/></g>
<g transform="translate(549.25,679.25) scale(4.4633333333333)"><rect width="6" height="6"/></g>
<g transform="translate(575.25,679.25) scale(4.4633333333333)"><rect width="6" height="6"/></g>
<g transform="translate(601.25,679.25) scale(4.4633333333333)"><rect width="6" height="6"/></g>
<g transform="translate(809.25,679.25) scale(4.4633333333333)"><rect width="6" height="6"/></g>
<g transform="translate(861.25,679.25) scale(4.4633333333333)"><rect width="6" height="6"/></g>
<g transform="translate(913.25,679.25) scale(4.4633333333333)"><rect width="6" height="6"/></g>
<g transform="translate(939.25,679.25) scale(4.4633333333333)"><rect width="6" height="6"/></g>
<g transform="translate(107.25,705.25) scale(4.4633333333333)"><rect width="6" height="6"/></g>
<g transform="translate(159.25,705.25) scale(4.4633333333333)"><rect width="6" height="6"/></g>
<g transform="translate(185.25,705.25) scale(4.4633333333333)"><rect width="6" height="6"/></g>
<g transform="translate(289.25,705.25) scale(4.4633333333333)"><rect width="6" height="6"/></g>
<g transform="translate(341.25,705.25) scale(4.4633333333333)"><rect width="6" height="6"/></g>
<g transform="translate(367.25,705.25) scale(4.4633333333333)"><rect width="6" height="6"/></g>
<g transform="translate(523.25,705.25) scale(4.4633333333333)"><rect width="6" height="6"/></g>
<g transform="translate(601.25,705.25) scale(4.4633333333333)"><rect width="6" height="6"/></g>
<g transform="translate(653.25,705.25) scale(4.4633333333333)"><rect width="6" height="6"/></g>
<g transform="translate(679.25,705.25) scale(4.4633333333333)"><rect width="6" height="6"/></g>
<g transform="translate(731.25,705.25) scale(4.4633333333333)"><rect width="6" height="6"/></g>
<g transform="translate(913.25,705.25) scale(4.4633333333333)"><rect width="6" height="6"/></g>
<g transform="translate(939.25,705.25) scale(4.4633333333333)"><rect width="6" height="6"/></g>
<g transform="translate(107.25,731.25) scale(4.4633333333333)"><rect width="6" height="6"/></g>
<g transform="translate(159.25,731.25) scale(4.4633333333333)"><rect width="6" height="6"/></g>
<g transform="translate(185.25,731.25) scale(4.4633333333333)"><rect width="6" height="6"/></g>
<g transform="translate(211.25,731.25) scale(4.4633333333333)"><rect width="6" height="6"/></g>
<g transform="translate(237.25,731.25) scale(4.4633333333333)"><rect width="6" height="6"/></g>
<g transform="translate(263.25,731.25) scale(4.4633333333333)"><rect width="6" height="6"/></g>
<g transform="translate(419.25,731.25) scale(4.4633333333333)"><rect width="6" height="6"/></g>
<g transform="translate(445.25,731.25) scale(4.4633333333333)"><rect width="6" height="6"/></g>
<g transform="translate(601.25,731.25) scale(4.4633333333333)"><rect width="6" height="6"/></g>
<g transform="translate(653.25,731.25) scale(4.4633333333333)"><rect width="6" height="6"/></g>
<g transform="translate(679.25,731.25) scale(4.4633333333333)"><rect width="6" height="6"/></g>
<g transform="translate(731.25,731.25) scale(4.4633333333333)"><rect width="6" height="6"/></g>
<g transform="translate(757.25,731.25) scale(4.4633333333333)"><rect width="6" height="6"/></g>
<g transform="translate(783.25,731.25) scale(4.4633333333333)"><rect width="6" height="6"/></g>
<g transform="translate(809.25,731.25) scale(4.4633333333333)"><rect width="6" height="6"/></g>
<g transform="translate(835.25,731.25) scale(4.4633333333333)"><rect width="6" height="6"/></g>
<g transform="translate(861.25,731.25) scale(4.4633333333333)"><rect width="6" height="6"/></g>
<g transform="translate(913.25,731.25) scale(4.4633333333333)"><rect width="6" height="6"/></g>
<g transform="translate(315.25,757.25) scale(4.4633333333333)"><rect width="6" height="6"/></g>
<g transform="translate(341.25,757.25) scale(4.4633333333333)"><rect width="6" height="6"/></g>
<g transform="translate(367.25,757.25) scale(4.4633333333333)"><rect width="6" height="6"/></g>
<g transform="translate(393.25,757.25) scale(4.4633333333333)"><rect width="6" height="6"/></g>
<g transform="translate(471.25,757.25) scale(4.4633333333333)"><rect width="6" height="6"/></g>
<g transform="translate(497.25,757.25) scale(4.4633333333333)"><rect width="6" height="6"/></g>
<g transform="translate(523.25,757.25) scale(4.4633333333333)"><rect width="6" height="6"/></g>
<g transform="translate(549.25,757.25) scale(4.4633333333333)"><rect width="6" height="6"/></g>
<g transform="translate(575.25,757.25) scale(4.4633333333333)"><rect width="6" height="6"/></g>
<g transform="translate(627.25,757.25) scale(4.4633333333333)"><rect width="6" height="6"/></g>
<g transform="translate(679.25,757.25) scale(4.4633333333333)"><rect width="6" height="6"/></g>
<g transform="translate(705.25,757.25) scale(4.4633333333333)"><rect width="6" height="6"/></g>
<g transform="translate(731.25,757.25) scale(4.4633333333333)"><rect width="6" height="6"/></g>
<g transform="translate(835.25,757.25) scale(4.4633333333333)"><rect width="6" height="6"/></g>
<g transform="translate(887.25,757.25) scale(4.4633333333333)"><rect width="6" height="6"/></g>
<g transform="translate(367.25,783.25) scale(4.4633333333333)"><rect width="6" height="6"/></g>
<g transform="translate(471.25,783.25) scale(4.4633333333333)"><rect width="6" height="6"/></g>
<g transform="translate(497.25,783.25) scale(4.4633333333333)"><rect width="6" height="6"/></g>
<g transform="translate(627.25,783.25) scale(4.4633333333333)"><rect width="6" height="6"/></g>
<g transform="translate(679.25,783.25) scale(4.4633333333333)"><rect width="6" height="6"/></g>
<g transform="translate(731.25,783.25) scale(4.4633333333333)"><rect width="6" height="6"/></g>
<g transform="translate(783.25,783.25) scale(4.4633333333333)"><rect width="6" height="6"/></g>
<g transform="translate(835.25,783.25) scale(4.4633333333333)"><rect width="6" height="6"/></g>
<g transform="translate(887.25,783.25) scale(4.4633333333333)"><rect width="6" height="6"/></g>
<g transform="translate(367.25,809.25) scale(4.4633333333333)"><rect width="6" height="6"/></g>
<g transform="translate(523.25,809.25) scale(4.4633333333333)"><rect width="6" height="6"/></g>
<g transform="translate(549.25,809.25) scale(4.4633333333333)"><rect width="6" height="6"/></g>
<g transform="translate(575.25,809.25) scale(4.4633333333333)"><rect width="6" height="6"/></g>
<g transform="translate(731.25,809.25) scale(4.4633333333333)"><rect width="6" height="6"/></g>
<g transform="translate(835.25,809.25) scale(4.4633333333333)"><rect width="6" height="6"/></g>
<g transform="translate(887.25,809.25) scale(4.4633333333333)"><rect width="6" height="6"/></g>
<g transform="translate(939.25,809.25) scale(4.4633333333333)"><rect width="6" height="6"/></g>
<g transform="translate(315.25,835.25) scale(4.4633333333333)"><rect width="6" height="6"/></g>
<g transform="translate(341.25,835.25) scale(4.4633333333333)"><rect width="6" height="6"/></g>
<g transform="translate(367.25,835.25) scale(4.4633333333333)"><rect width="6" height="6"/></g>
<g transform="translate(393.25,835.25) scale(4.4633333333333)"><rect width="6" height="6"/></g>
<g transform="translate(445.25,835.25) scale(4.4633333333333)"><rect width="6" height="6"/></g>
<g transform="translate(471.25,835.25) scale(4.4633333333333)"><rect width="6" height="6"/></g>
<g transform="translate(497.25,835.25) scale(4.4633333333333)"><rect width="6" height="6"/></g>
<g transform="translate(627.25,835.25) scale(4.4633333333333)"><rect width="6" height="6"/></g>
<g transform="translate(653.25,835.25) scale(4.4633333333333)"><rect width="6" height="6"/></g>
<g transform="translate(679.25,835.25) scale(4.4633333333333)"><rect width="6" height="6"/></g>
<g transform="translate(731.25,835.25) scale(4.4633333333333)"><rect width="6" height="6"/></g>
<g transform="translate(757.25,835.25) scale(4.4633333333333)"><rect width="6" height="6"/></g>
<g transform="translate(783.25,835.25) scale(4.4633333333333)"><rect width="6" height="6"/></g>
<g transform="translate(809.25,835.25) scale(4.4633333333333)"><rect width="6" height="6"/></g>
<g transform="translate(835.25,835.25) scale(4.4633333333333)"><rect width="6" height="6"/></g>
<g transform="translate(887.25,835.25) scale(4.4633333333333)"><rect width="6" height="6"/></g>
<g transform="translate(315.25,861.25) scale(4.4633333333333)"><rect width="6" height="6"/></g>
<g transform="translate(367.25,861.25) scale(4.4633333333333)"><rect width="6" height="6"/></g>
<g transform="translate(393.25,861.25) scale(4.4633333333333)"><rect width="6" height="6"/></g>
<g transform="translate(419.25,861.25) scale(4.4633333333333)"><rect width="6" height="6"/></g>
<g transform="translate(471.25,861.25) scale(4.4633333333333)"><rect width="6" height="6"/></g>
<g transform="translate(601.25,861.25) scale(4.4633333333333)"><rect width="6" height="6"/></g>
<g transform="translate(705.25,861.25) scale(4.4633333333333)"><rect width="6" height="6"/></g>
<g transform="translate(731.25,861.25) scale(4.4633333333333)"><rect width="6" height="6"/></g>
<g transform="translate(835.25,861.25) scale(4.4633333333333)"><rect width="6" height="6"/></g>
<g transform="translate(861.25,861.25) scale(4.4633333333333)"><rect width="6" height="6"/></g>
<g transform="translate(315.25,887.25) scale(4.4633333333333)"><rect width="6" height="6"/></g>
<g transform="translate(419.25,887.25) scale(4.4633333333333)"><rect width="6" height="6"/></g>
<g transform="translate(497.25,887.25) scale(4.4633333333333)"><rect width="6" height="6"/></g>
<g transform="translate(523.25,887.25) scale(4.4633333333333)"><rect width="6" height="6"/></g>
<g transform="translate(549.25,887.25) scale(4.4633333333333)"><rect width="6" height="6"/></g>
<g transform="translate(601.25,887.25) scale(4.4633333333333)"><rect width="6" height="6"/></g>
<g transform="translate(627.25,887.25) scale(4.4633333333333)"><rect width="6" height="6"/></g>
<g transform="translate(653.25,887.25) scale(4.4633333333333)"><rect width="6" height="6"/></g>
<g transform="translate(731.25,887.25) scale(4.4633333333333)"><rect width="6" height="6"/></g>
<g transform="translate(783.25,887.25) scale(4.4633333333333)"><rect width="6" height="6"/></g>
<g transform="translate(393.25,913.25) scale(4.4633333333333)"><rect width="6" height="6"/></g>
<g transform="translate(419.25,913.25) scale(4.4633333333333)"><rect width="6" height="6"/></g>
<g transform="translate(445.25,913.25) scale(4.4633333333333)"><rect width="6" height="6"/></g>
<g transform="translate(471.25,913.25) scale(4.4633333333333)"><rect width="6" height="6"/></g>
<g transform="translate(497.25,913.25) scale(4.4633333333333)"><rect width="6" height="6"/></g>
<g transform="translate(575.25,913.25) scale(4.4633333333333)"><rect width="6" height="6"/></g>
<g transform="translate(627.25,913.25) scale(4.4633333333333)"><rect width="6" height="6"/></g>
<g transform="translate(653.25,913.25) scale(4.4633333333333)"><rect width="6" height="6"/></g>
<g transform="translate(809.25,913.25) scale(4.4633333333333)"><rect width="6" height="6"/></g>
<g transform="translate(861.25,913.25) scale(4.4633333333333)"><rect width="6" height="6"/></g>
<g transform="translate(341.25,939.25) scale(4.4633333333333)"><rect width="6" height="6"/></g>
<g transform="translate(393.25,939.25) scale(4.4633333333333)"><rect width="6" height="6"/></g>
<g transform="translate(445.25,939.25) scale(4.4633333333333)"><rect width="6" height="6"/></g>
<g transform="translate(497.25,939.25) scale(4.4633333333333)"><rect width="6" height="6"/></g>
<g transform="translate(523.25,939.25) scale(4.4633333333333)"><rect width="6" height="6"/></g>
<g transform="translate(549.25,939.25) scale(4.4633333333333)"><rect width="6" height="6"/></g>
<g transform="translate(653.25,939.25) scale(4.4633333333333)"><rect width="6" height="6"/></g>
<g transform="translate(679.25,939.25) scale(4.4633333333333)"><rect width="6" height="6"/></g>
<g transform="translate(705.25,939.25) scale(4.4633333333333)"><rect width="6" height="6"/></g>
<g transform="translate(731.25,939.25) scale(4.4633333333333)"><rect width="6" height="6"/></g>
<g transform="translate(887.25,939.25) scale(4.4633333333333)"><rect width="6" height="6"/></g>
<g transform="translate(913.25,939.25) scale(4.4633333333333)"><rect width="6" height="6"/></g>
</g></g></mask></defs>
<rect width="992.95625" height="992.95625" fill="#ffffff" x="44.6875" y="44.6875" />
<g fill="#000000" transform="scale(44.6875)"><path d="M1.3,24l21.3,0c0.7,0,1.3-0.6,1.3-1.3l0-21.3C24,0.6,23.4,0,22.7,0L1.3,0C0.6,0,0,0.6,0,1.3l0,21.3 C0,23.4,0.6,24,1.3,24z M1,2c0-0.6,0.5-1,1-1l20,0c0.6,0,1,0.5,1,1v20c0,0.6-0.5,1-1,1L2,23c-0.6,0-1-0.5-1-1V2z"/><path d="M1,30h22c0.5,0,1-0.4,1-1v-3c0-0.5-0.4-1-1-1H13l-1-1l-1,1H1c-0.5,0-1,0.4-1,1v3C0,29.6,0.4,30,1,30z"/></g>
<rect x="0" y="0" width="1072.5" height="1340.625" mask="url(#qrmask)" fill="#000000" />
<g><g transform="translate(107.25,107.25)"  fill="#000000"><g transform="scale(13)"><path d="M0,7L0,7c0,3.9,3.1,7,7,7h7V7c0-3.9-3.1-7-7-7h0C3.1,0,0,3.1,0,7z M12,12H7c-2.8,0-5-2.2-5-5v0c0-2.8,2.2-5,5-5h0 c2.8,0,5,2.2,5,5V12z"/></g></g>
<g transform="translate(159.25,159.25)"  fill="#000000"><g transform="scale(13)"><polygon points="3,5.1 3.9,6 6,6 6,3.9 5.1,3 6,2.1 6,0 3.9,0 3,0.9 2.1,0 0,0 0,2.1 0.9,3 0,3.9 0,6 2.1,6"/></g></g>
<g transform="translate(783.25,107.25)"  fill="#000000"><g transform="scale(13) rotate(90 7 7)"><path d="M0,7L0,7c0,3.9,3.1,7,7,7h7V7c0-3.9-3.1-7-7-7h0C3.1,0,0,3.1,0,7z M12,12H7c-2.8,0-5-2.2-5-5v0c0-2.8,2.2-5,5-5h0 c2.8,0,5,2.2,5,5V12z"/></g></g>
<g transform="translate(835.25,159.25)"  fill="#000000"><g transform="scale(13)"><polygon points="3,5.1 3.9,6 6,6 6,3.9 5.1,3 6,2.1 6,0 3.9,0 3,0.9 2.1,0 0,0 0,2.1 0.9,3 0,3.9 0,6 2.1,6"/></g></g>
<g transform="translate(107.25,783.25)"  fill="#000000"><g transform="scale(13) rotate(-90 7 7)"><path d="M0,7L0,7c0,3.9,3.1,7,7,7h7V7c0-3.9-3.1-7-7-7h0C3.1,0,0,3.1,0,7z M12,12H7c-2.8,0-5-2.2-5-5v0c0-2.8,2.2-5,5-5h0 c2.8,0,5,2.2,5,5V12z"/></g></g>
<g transform="translate(159.25,835.25)"  fill="#000000"><g transform="scale(13)"><polygon points="3,5.1 3.9,6 6,6 6,3.9 5.1,3 6,2.1 6,0 3.9,0 3,0.9 2.1,0 0,0 0,2.1 0.9,3 0,3.9 0,6 2.1,6"/></g></g></g>
<text fill="#FFFFFF" font-family="Arial, Helvetica, sans-serif" font-size="110.32847222222px" text-anchor="middle" x="525.625" y="154.15277777778" transform="translate(0,1117.1875)">ADVENTURE</text></svg>